<svg xmlns="http://www.w3.org/2000/svg" height="800" width="1200" viewBox="-54.3129 -48.132 470.7118 288.792"><defs><linearGradient gradientTransform="translate(756.928 -163.349) scale(161.3916)" gradientUnits="userSpaceOnUse" id="a"><stop offset="0" stop-color="#ed3339"/><stop offset=".522" stop-color="#ed3339"/><stop offset=".888" stop-color="#fff"/><stop offset="1" stop-color="#fff"/></linearGradient><linearGradient gradientTransform="translate(751.61 -161.089) scale(166.709)" gradientUnits="userSpaceOnUse" id="b"><stop offset="0" stop-color="#ed3339"/><stop offset=".522" stop-color="#ed3339"/><stop offset=".888" stop-color="#fff"/><stop offset="1" stop-color="#fff"/></linearGradient><linearGradient gradientTransform="translate(746.295 -158.827) scale(172.0249)" gradientUnits="userSpaceOnUse" id="c"><stop offset="0" stop-color="#ed3339"/><stop offset=".522" stop-color="#ed3339"/><stop offset=".888" stop-color="#fff"/><stop offset="1" stop-color="#fff"/></linearGradient><linearGradient gradientTransform="translate(740.977 -156.567) scale(177.3423)" gradientUnits="userSpaceOnUse" id="d"><stop offset="0" stop-color="#ed3339"/><stop offset=".522" stop-color="#ed3339"/><stop offset=".888" stop-color="#fff"/><stop offset="1" stop-color="#fff"/></linearGradient><linearGradient gradientTransform="translate(738.793 -154.311) scale(179.5269)" gradientUnits="userSpaceOnUse" id="e"><stop offset="0" stop-color="#ed3339"/><stop offset=".522" stop-color="#ed3339"/><stop offset=".888" stop-color="#fff"/><stop offset="1" stop-color="#fff"/></linearGradient></defs><path fill="#3a0008" d="M362.086 192.528H0V0h362.086z"/><path fill="#fff" d="M72.451 132.257l-14.124-11.23h19.91l10.891-19.57v19.57H120.1V23.685l-90.362 136.82h26.377l16.336-28.247z"/><path fill="#fff" d="M89.93 135.832l6.006 17.866H120.1v-17.866z"/><path fill="url(#a)" d="M918.32-163.022v-.664l-157.928-.404-3.464 1.482 161.392-.414z" transform="matrix(1.25 0 0 1.25 -834.38 326.832)"/><path fill="url(#b)" d="M918.32-160.76v-.665l-163.181-.418-3.528 1.51 166.709-.428z" transform="matrix(1.25 0 0 1.25 -834.38 326.832)"/><path fill="url(#c)" d="M918.32-158.501v-.664l-168.435-.43-3.59 1.535 172.025-.441z" transform="matrix(1.25 0 0 1.25 -834.38 326.832)"/><path fill="url(#d)" d="M918.32-156.24v-.664l-173.69-.445-3.652 1.563 177.342-.454z" transform="matrix(1.25 0 0 1.25 -834.38 326.832)"/><path fill="url(#e)" d="M739.237-153.52l179.083-.46v-.664l-178.943-.458-.584.25.444 1.332z" transform="matrix(1.25 0 0 1.25 -834.38 326.832)"/><path d="M135.779 92.702v26.103h-8.828V73.493h11.924l3.778 20.865 3.958-20.865h11.043v45.312h-8.906V92.702l-4.428 26.103h-3.959zm26.083 26.103V73.493h15.625v6.64h-5.86v10.782h5.443v6.718h-5.443v14.661h5.86v6.511zm32.63-29.555v-6.685c0-1.212-.145-1.954-.434-2.229-.29-.273-.88-.411-1.77-.411h-.96v12.494c.123 0 .3.01.528.03.227.02.39.028.495.028.827 0 1.392-.132 1.69-.396.3-.264.451-.767.451-1.51v-1.32zm-13.04 29.555V73.493h11.195c4.863 0 7.962.54 9.299 1.617 1.337 1.078 2.005 3.655 2.005 7.73v4.71c0 3.29-.33 5.49-.99 6.598-.66 1.109-3.579 1.963-5.307 2.563 1.672.47 4.578 1.246 5.266 2.325.687 1.08 1.031 2.753 1.031 5.018v14.751h-9.459v-15.569c0-.944-.156-1.582-.468-1.909-.313-.327-1.286-.49-2.15-.49h-.579v17.968zm27.452 0V73.493h9.765v45.312zm13.957-36.157c0-4.221.623-6.842 1.87-7.861 1.247-1.018 4.98-2.154 9.95-2.154 5.08 0 7.61 1.172 8.837 2.264 1.228 1.091 1.843 3.675 1.843 7.751v6.314h-9.843v-6.04c0-.874-.112-1.466-.331-1.777-.221-.31-1.104-.465-1.71-.465-.46 0-.782.137-.965.41-.184.274-.276.884-.276 1.832v26.41c0 .834.105 1.425.318 1.77.21.344.573.516 1.089.516.44 0 1.253-.13 1.502-.394.248-.263.373-.63.373-1.103V99.508h9.843v10.096c0 4.175-.633 6.804-1.898 7.888-1.266 1.084-3.742 2.267-8.71 2.267-5.025 0-8.797-1.197-10.035-2.309-1.238-1.11-1.857-3.726-1.857-7.846zm35.661 19.907h3.09l-1.531-17.492-1.56 17.492zm-11.68 16.25l7.478-45.312h11.875l5.308 45.312h-8.433l-.997-7.988h-5.044l-.745 7.988zm26.784 0V73.493h9.106l4.878 18.574V73.493h8.516v45.312h-7.847l-6.216-22.207v22.207zm26.473-40.183v-3.75h-1.553v-.81h4.18v.81h-1.543v3.75zm3.254 0v-4.56h1.597l1.041 3.47 1.03-3.47h1.606v4.56h-1.016v-3.678l-1.064 3.678h-1.104l-1.074-3.678v3.678zM129.119 153.9v-13.317h-1.573v14.89h10.727V153.9zm54.931-11.745v-1.572h-11.56v14.89h11.56V153.9h-9.987v-5.163h9.631v-1.572h-9.63v-5.011zm94.737 0v-1.572h-11.56v14.89h11.56V153.9h-9.988v-5.163h9.631v-1.572h-9.63v-5.011zm-82.387 5.962c-.067 0-5.53-.006-8.281 0v-5.974c2.662-.025 7.867-.07 8.281-.07 1.02 0 1.845.658 1.845 1.471v2.666c0 .812-.826 1.907-1.845 1.907zm1.16.886c1.314-.38 2.257-1.378 2.257-2.557v-3.139c0-1.504-1.53-2.724-3.417-2.724h-9.853v14.89h1.572v-5.781h8.373c1.019 0 1.844 1.308 1.844 2.121v3.66h1.572v-3.895c0-1.205-.988-2.216-2.348-2.575zm-54.949 1.804l4.008-8.535 4.007 8.535zm4.95-10.224h-1.886l-6.991 14.89h1.737l1.452-3.093h9.49l1.453 3.093h1.737zm83.11 10.224l4.008-8.535 4.008 8.535zm4.952-10.224h-1.888l-6.992 14.89h1.738l1.453-3.093h9.49l1.452 3.093h1.738zm-65.946 4.283v-1.559c0-1.504-1.53-2.724-3.417-2.724h-6.612c-1.887 0-3.416 1.22-3.416 2.724v2.887c0 1.505 1.53 2.725 3.416 2.725h6.612c1.02 0 1.845.658 1.845 1.47v2.04c0 .812-.825 1.472-1.845 1.472h-6.612c-1.019 0-1.844-.66-1.844-1.473v-1.62h-1.572v1.94c0 1.504 1.53 2.725 3.416 2.725h6.612c1.888 0 3.417-1.22 3.417-2.725v-2.677c0-1.505-1.53-2.724-3.417-2.724h-6.612c-1.019 0-1.844-.658-1.844-1.471v-2.249c0-.813.825-1.472 1.844-1.472h6.612c1.02 0 1.845.66 1.845 1.472v1.24zm123.819 0v-1.559c0-1.504-1.53-2.724-3.417-2.724h-6.612c-1.887 0-3.416 1.22-3.416 2.724v2.887c0 1.505 1.529 2.725 3.416 2.725h6.612c1.02 0 1.845.658 1.845 1.47v2.04c0 .812-.825 1.472-1.845 1.472h-6.612c-1.018 0-1.843-.66-1.843-1.473v-1.62h-1.573v1.94c0 1.504 1.529 2.725 3.416 2.725h6.612c1.888 0 3.417-1.22 3.417-2.725v-2.677c0-1.505-1.53-2.724-3.417-2.724h-6.612c-1.018 0-1.843-.658-1.843-1.471v-2.249c0-.813.825-1.472 1.843-1.472h6.612c1.02 0 1.845.66 1.845 1.472v1.24zm-68.539 0v-1.559c0-1.504-1.53-2.724-3.417-2.724h-7.681c-1.888 0-3.417 1.22-3.417 2.724v9.441c0 1.504 1.53 2.725 3.417 2.725h7.681c1.888 0 3.417-1.22 3.417-2.725v-4.631h-7.635v1.572h6.063v2.74c0 .812-.825 1.472-1.845 1.472h-7.681c-1.02 0-1.845-.66-1.845-1.473v-8.8c0-.814.825-1.473 1.845-1.473h7.681c1.02 0 1.845.66 1.845 1.472v1.24zm35.828-4.283l-7.078 12.815-7.077-12.815h-2.404v14.848h1.572v-13.103l7.259 13.145h1.301l7.258-13.145v13.103h1.573v-14.848zm53.082 13.369v.915c0 .357-.36.644-.805.644h-2.083c-.445 0-.806-.287-.806-.644v-3.845c0-.355.36-.643.806-.643h2.083c.445 0 .805.288.805.643v.542h.687v-.681c0-.658-.668-1.191-1.492-1.191h-2.083c-.825 0-1.493.533-1.493 1.191v4.125c0 .657.668 1.19 1.493 1.19h2.083c.824 0 1.493-.533 1.493-1.19v-1.056zm-12.458 2.246h-.687v-6.506h.687zm6.238-6.506v5.911l-3.69-5.911h-1.234v6.506h.688v-6.084l3.797 6.084h1.126v-6.506zm-11.25 4.129h-1.674v2.003h.995a.47.47 0 01.056.22v.891c0 .321-.326.581-.73.581h-.425l-.43.623h.855c.747 0 1.352-.482 1.352-1.08v-3.238z" fill="#fff"/></svg>