<svg width="453.2875244140625px" height="183.2px" xmlns="http://www.w3.org/2000/svg" viewBox="23.356237792968756 -16.599999999999994 453.2875244140625 183.2" style="background: rgba(0, 0, 0, 0);" preserveAspectRatio="xMidYMid"><defs><filter id="editing-extrude-glow"><feFlood flood-color="#333333" result="flood-1"></feFlood><feMorphology operator="erode" radius="1" in="SourceAlpha" result="erode"></feMorphology><feComposite operator="in" in="flood-1" in2="erode" result="comp1"></feComposite><feConvolveMatrix order="5,5" divisor="1" in="comp1" result="convolve" kernelMatrix="0 0 0 0 0 0 0 0 0 0 1 1 1 1 1 0 0 0 0 0 0 0 0 0 0"></feConvolveMatrix><feOffset dx="-5" dy="0" in="convolve" result="extrude"></feOffset><feComposite operator="in" in="flood-1" in2="extrude" result="comp-extrude"></feComposite><feFlood flood-color="#000000" result="flood-2"></feFlood><feComposite operator="in" in="flood-2" in2="SourceAlpha" result="comp2"></feComposite><feMorphology operator="dilate" radius="1" in="comp2" result="dilate"></feMorphology><feOffset dx="-7.5" dy="0" in="dilate" result="offset"></feOffset><feGaussianBlur in="offset" stdDeviation="5.8" result="blur"></feGaussianBlur><feComponentTransfer in="blur" result="shadow"><feFuncA type="linear" slope="0.8" intercept="-0.2"></feFuncA></feComponentTransfer><feMerge><feMergeNode in="shadow"></feMergeNode><feMergeNode in="comp-extrude"></feMergeNode><feMergeNode in="SourceGraphic"></feMergeNode></feMerge></filter></defs><g filter="url(#editing-extrude-glow)"><g transform="translate(93.91375303268433, 113.11000061035156)"><path d="M46.97 2.06L46.97 2.06L46.97 2.06Q33.78 2.06 32.55-16.69L32.55-16.69L14.83-16.69L14.83-16.69Q12.77-11.95 11.33-7.83L11.33-7.83L8.65 0L-5.77 0L26.68-67.98L48.82-67.98L53.15-17.92L53.15-17.92Q54.18-7.11 58.30-3.91L58.30-3.91L58.30-3.91Q55.31 2.06 46.97 2.06ZM23.69-37.29L18.03-24.21L32.24-24.21L31.00-50.68L31.00-53.46L23.69-37.29ZM96.51-28.94L96.51-28.94L96.51-28.94Q100.22-35.54 100.22-42.23L100.22-42.23L100.22-42.23Q100.22-46.66 97.03-46.66L97.03-46.66L97.03-46.66Q94.55-46.66 91.98-42.44L91.98-42.44L91.98-42.44Q89.30-38.21 88.48-32.75L88.48-32.75L83.12 0L61.80 2.06L72.31-52.53L89.30-54.59L87.45-44.19L87.45-44.19Q92.49-54.59 103.82-54.59L103.82-54.59L103.82-54.59Q109.80-54.59 113.04-51.50L113.04-51.50L113.04-51.50Q116.29-48.41 116.29-42.08L116.29-42.08L116.29-42.08Q116.29-35.74 112.12-31.72L112.12-31.72L112.12-31.72Q107.94-27.71 100.84-27.71L100.84-27.71L100.84-27.71Q97.75-27.71 96.51-28.94ZM144.51-48.82L144.51-48.82L144.51-48.82Q150.07-54.59 161.81-54.59L161.81-54.59L161.81-54.59Q168.30-54.59 171.86-51.14L171.86-51.14L171.86-51.14Q175.41-47.69 175.41-41.35L175.41-41.35L175.41-41.35Q175.41-35.02 171.86-30.54L171.86-30.54L171.86-30.54Q168.30-26.06 161.71-24.21L161.71-24.21L161.71-24.21Q162.23-22.15 162.95-19.98L162.95-19.98L164.39-15.86L164.39-15.86Q166.35-10.61 167.89-8.76L167.89-8.76L167.89-8.76Q169.44-6.90 171.50-6.28L171.50-6.28L171.50-6.28Q170.36-2.06 166.24 0.21L166.24 0.21L166.24 0.21Q162.95 2.06 158.41 2.06L158.41 2.06L158.41 2.06Q145.13 2.06 143.38-18.44L143.38-18.44L143.38-18.44Q143.07-21.32 143.07-24.21L143.07-24.21L143.07-24.21Q148.22-25.65 151.82-30.49L151.82-30.49L151.82-30.49Q155.43-35.33 155.43-40.99L155.43-40.99L155.43-40.99Q155.43-46.66 151.41-46.66L151.41-46.66L151.41-46.66Q148.53-46.66 146.26-43.47L146.26-43.47L146.26-43.47Q143.99-40.27 142.96-34.81L142.96-34.81L136.17 0L115.36 2.06L129.78-72.10L150.48-74.16L148.11-61.90L148.11-61.90Q146.57-53.25 144.51-48.82ZM181.69-25.13L181.69-25.13L181.69-25.13Q181.69-44.60 191.79-56.86L191.79-56.86L191.79-56.86Q202.50-70.14 221.14-70.14L221.14-70.14L221.14-70.14Q234.63-70.14 241.43-63.60L241.43-63.60L241.43-63.60Q248.23-57.06 248.23-43.26L248.23-43.26L248.23-43.26Q248.23-22.25 237.52-9.99L237.52-9.99L237.52-9.99Q226.91 2.06 209.09 2.06L209.09 2.06L209.09 2.06Q195.19 2.06 188.44-4.89L188.44-4.89L188.44-4.89Q181.69-11.85 181.69-25.13ZM208.78-46.45L208.78-46.45L208.78-46.45Q204.15-27.91 204.15-13.29L204.15-13.29L204.15-13.29Q204.15-9.79 205.33-7.52L205.33-7.52L205.33-7.52Q206.52-5.25 209.66-5.25L209.66-5.25L209.66-5.25Q212.80-5.25 214.76-6.75L214.76-6.75L214.76-6.75Q216.71-8.24 218.26-11.64L218.26-11.64L218.26-11.64Q220.73-17.20 223.05-28.99L223.05-28.99L223.05-28.99Q225.36-40.79 225.57-45.68L225.57-45.68L225.57-45.68Q225.78-50.57 225.78-54.28L225.78-54.28L225.78-54.28Q225.78-57.99 224.64-60.36L224.64-60.36L224.64-60.36Q223.51-62.73 220.47-62.73L220.47-62.73L220.47-62.73Q217.43-62.73 215.37-60.87L215.37-60.87L215.37-60.87Q211.56-57.37 208.78-46.45ZM293.45-47.59L293.45-47.59L293.45-47.59Q294.99-50.68 294.99-53.56L294.99-53.56L294.99-53.56Q294.99-56.44 294.68-58.04L294.68-58.04L294.68-58.04Q294.37-59.64 293.65-60.87L293.65-60.87L293.65-60.87Q292.11-63.55 289.02-63.55L289.02-63.55L289.02-63.55Q285.21-63.55 282.12-60.77L282.12-60.77L282.12-60.77Q278.82-57.89 278.82-53.35L278.82-53.35L278.82-53.35Q278.82-50.47 280.83-48.26L280.83-48.26L280.83-48.26Q282.84-46.04 285.93-43.98L285.93-43.98L285.93-43.98Q289.02-41.92 292.52-39.86L292.52-39.86L292.52-39.86Q296.02-37.80 299.11-35.33L299.11-35.33L299.11-35.33Q306.22-29.66 306.22-22.04L306.22-22.04L306.22-22.04Q306.22-16.89 303.49-12.51L303.49-12.51L303.49-12.51Q300.76-8.14 296.23-4.94L296.23-4.94L296.23-4.94Q286.34 2.06 273.26 2.06L273.26 2.06L273.26 2.06Q262.65 2.06 257.19-1.39L257.19-1.39L257.19-1.39Q251.73-4.84 251.73-10.09L251.73-10.09L251.73-10.09Q251.73-19.47 259.05-21.84L259.05-21.84L259.05-21.84Q261.11-22.56 264.25-22.56L264.25-22.56L264.25-22.56Q267.39-22.56 270.99-21.22L270.99-21.22L270.99-21.22Q269.35-17.00 269.35-13.18L269.35-13.18L269.35-13.18Q269.35-4.94 275.22-4.94L275.22-4.94L275.22-4.94Q279.03-4.94 282.17-7.73L282.17-7.73L282.17-7.73Q285.31-10.51 285.31-13.65L285.31-13.65L285.31-13.65Q285.31-16.79 283.30-19.06L283.30-19.06L283.30-19.06Q281.29-21.32 278.31-23.12L278.31-23.12L278.31-23.12Q275.32-24.93 271.87-26.68L271.87-26.68L271.87-26.68Q268.42-28.43 265.43-30.90L265.43-30.90L265.43-30.90Q258.43-36.57 258.43-45.63L258.43-45.63L258.43-45.63Q258.43-51.50 261.31-56.08L261.31-56.08L261.31-56.08Q264.19-60.67 268.83-63.76L268.83-63.76L268.83-63.76Q278.10-70.04 289.48-70.04L289.48-70.04L289.48-70.04Q300.86-70.04 306.37-66.64L306.37-66.64L306.37-66.64Q311.88-63.24 311.88-57.47L311.88-57.47L311.88-57.47Q311.88-52.43 307.97-49.23L307.97-49.23L307.97-49.23Q304.57-46.56 300.45-46.56L300.45-46.56L300.45-46.56Q296.33-46.56 293.45-47.59Z" fill="#eb6c6c"></path></g></g><style>text {
  font-size: 64px;
  font-family: Arial Black;
  dominant-baseline: central;
  text-anchor: middle;
}</style></svg>